<?xml version="1.0" encoding="UTF-8"?>
<svg id="Layer_2" data-name="Layer 2" xmlns="http://www.w3.org/2000/svg" xmlns:xlink="http://www.w3.org/1999/xlink" viewBox="0 0 443.4 635.5">
  <defs>
    <style>
      .cls-1 {
        fill: url(#linear-gradient);
      }

      .cls-1, .cls-2, .cls-3, .cls-4, .cls-5 {
        stroke-width: 0px;
      }

      .cls-2 {
        fill: url(#linear-gradient-2);
      }

      .cls-3 {
        fill: url(#linear-gradient-3);
      }

      .cls-4 {
        fill: #fff;
      }

      .cls-5 {
        fill: url(#linear-gradient-4);
      }
    </style>
    <linearGradient id="linear-gradient" x1="12.48" y1="104" x2="443.4" y2="104" gradientUnits="userSpaceOnUse">
      <stop offset="0" stop-color="#0c1c1a"/>
      <stop offset=".5" stop-color="#099"/>
      <stop offset="1" stop-color="#5eedda"/>
    </linearGradient>
    <linearGradient id="linear-gradient-2" x1="0" y1="291.7" x2="437.91" y2="291.7" xlink:href="#linear-gradient"/>
    <linearGradient id="linear-gradient-3" x1="388.31" y1="453.82" x2="94.5" y2="521.18" xlink:href="#linear-gradient"/>
    <linearGradient id="linear-gradient-4" x1="202.28" y1="43.69" x2="183.7" y2="265.49" xlink:href="#linear-gradient"/>
  </defs>
  <g id="Layer_1-2" data-name="Layer 1">
    <g>
      <path class="cls-1" d="M443.4,132.31v75.7c-12.29-20.54-32.09-40.01-56.65-57.7t-.02,0C273.63,68.73,59.49,24.61,12.48,86.2c6.47-11.08,15.29-20.8,26.08-28.39C90.39,21.39,153.55,0,221.7,0s131.31,21.39,183.13,57.81c24.23,17.03,38.56,44.88,38.56,74.5Z"/>
      <path class="cls-2" d="M437.91,350.78c-7.72,45.97-23.41,89.87-46.01,129.86-4.19-54.29-40.76-80.61-90.08-96.57C193.17,348.88,22.64,363.89,0,240.61v-108.3c0-10.18,1.7-20.15,4.9-29.55-21.6,86.61,126.77,133.38,190.34,140.84,5.79.68,11.63,1.31,17.48,1.92h.02c107.15,11.02,220.17,11.82,225.17,105.27Z"/>
      <path class="cls-3" d="M391.91,480.64c-.59,1.05-1.2,2.11-1.8,3.16-34.34,59.47-84.06,110.06-145.6,145.59-7.06,4.07-14.94,6.11-22.81,6.11s-15.75-2.04-22.81-6.11c-90.48-52.23-155.41-137.03-183.46-234.75,18.72,45.58,81.94,87.58,128.72,98.02,93.32,20.84,174.96-22.22,157.67-108.6,49.32,15.97,85.9,42.28,90.08,96.57Z"/>
      <path class="cls-4" d="M301.82,384.07c40.19,11.97,78.36,35.25,87.64,79.05,1.27,5.77,2.09,11.64,2.44,17.53-1.14-11.73-3.78-23.36-8.6-34.08-14.44-33.3-48.63-51.44-81.48-62.49h0Z"/>
      <path class="cls-5" d="M212.72,245.51c-5.85-.6-11.69-1.24-17.48-1.92-63.57-7.45-211.94-54.23-190.34-140.84,0-.02,0-.04.02-.05,1.97-5.75,4.5-11.28,7.56-16.5,47.01-61.59,261.15-17.47,374.25,64.1-242.44-88.76-338.93,31.92-174.01,95.21Z"/>
      <path class="cls-4" d="M212.72,245.51l-17.39-1.86c-17.38-2.05-34.53-5.8-51.4-10.42-45.81-13-106.7-37.2-132.09-79.68C2.8,138.34-.04,119.64,4.53,102.51c1.87-5.48,4.52-11.41,7.59-16.58,10.44-13.47,26.93-20.36,43.07-24.28,75.24-15.91,174.09,11.01,244.03,40.26,30.68,13.13,60.4,28.85,87.51,48.39-13.58-9.72-27.87-18.41-42.55-26.34C267.21,82.68,142.29,44.14,55.43,62.62c-15.94,3.84-32.26,10.58-42.59,23.85-2.91,4.96-5.61,10.78-7.53,16.43-2.74,10.76-2.91,23.29.37,34.32,6.57,22.59,24.25,39.92,43.02,53.16,28.78,19.94,61.85,32.83,95.35,42.48,16.83,4.71,33.95,8.55,51.3,10.7,0,0,17.38,1.95,17.38,1.95h0Z"/>
    </g>
  </g>
</svg>